<svg enable-background="new 0 0 2000 2000" viewBox="0 0 2000 2000" xmlns="http://www.w3.org/2000/svg"><path d="m0 0h2000v2000h-2000z" fill="#f8fdff"/><g fill="#0a1528"><path d="m476.71 1087.64v-265.05h74.68l59.2 207.01 59.2-207.01h75.07v265.06h-43.34v-217.47h-5.8l-62.69 206.63h-44.88l-62.69-206.63h-5.81v217.46z"/><path d="m917.64 1052.82 10.84-1.16.77 31.34c-29.41 5.93-55.47 8.9-78.16 8.9-28.64 0-49.21-7.86-61.72-23.6-12.52-15.73-18.77-40.88-18.77-75.46 0-68.62 27.99-102.93 83.97-102.93 54.17 0 81.26 29.54 81.26 88.61l-2.71 30.18h-119.96c.25 16 3.74 27.73 10.44 35.21 6.7 7.49 19.21 11.22 37.53 11.22 18.32.01 37.16-.76 56.51-2.31zm-23.22-76.62c0-19.09-3.03-32.44-9.09-40.05s-16.32-11.41-30.76-11.41c-14.45 0-24.96 4-31.53 12-6.58 8-10 21.15-10.25 39.47h81.63z"/><path d="m958.94 1087.64v-193.47h41.79v23.22c21.92-14.19 43.85-23.35 65.78-27.47v42.18c-22.19 4.39-41.15 10.06-56.88 17.03l-8.52 3.48v135.04h-42.17z"/><path d="m1256.89 1113.96c0 42.3-30.57 63.46-91.71 63.46-29.41 0-51.21-4-65.39-11.99-14.19-8-21.28-22.58-21.28-43.73 0-9.55 2.32-17.74 6.96-24.57 4.65-6.84 12.12-14.25 22.45-22.25-8.51-5.67-12.77-15.09-12.77-28.24 0-5.16 3.48-13.54 10.45-25.15l3.48-5.8c-18.57-11.09-27.86-30.44-27.86-58.04 0-23.22 6.97-40.24 20.89-51.08 13.93-10.84 32.76-16.25 56.5-16.25 11.35 0 22.57 1.29 33.66 3.87l5.8 1.16 59.98-1.55v34.05l-32.12-1.93c6.96 9.03 10.45 19.61 10.45 31.73 0 25.29-6.39 42.76-19.16 52.43s-32.7 14.51-59.78 14.51c-6.71 0-12.38-.51-17.03-1.55-3.62 8.77-5.42 15.55-5.42 20.32s2.39 8.06 7.16 9.87 16.32 2.84 34.63 3.09c30.7.26 51.72 4.39 63.07 12.38 11.36 7.98 17.04 23.07 17.04 45.26zm-136.98 3.87c0 9.03 3.61 15.48 10.84 19.35 7.22 3.87 19.6 5.8 37.15 5.8 31.21 0 46.82-8.9 46.82-26.7 0-10.06-2.78-16.45-8.32-19.16-5.55-2.71-16.58-4.2-33.08-4.45l-37.92-2.32c-5.68 4.64-9.67 8.96-11.99 12.96-2.34 4-3.5 8.84-3.5 14.52zm11.61-134.08c5.67 5.55 14.83 8.32 27.47 8.32 12.63 0 21.73-2.77 27.28-8.32 5.54-5.54 8.32-14.25 8.32-26.12 0-11.86-2.84-20.57-8.51-26.12-5.68-5.54-14.84-8.32-27.47-8.32-23.74 0-35.6 11.48-35.6 34.44 0 11.87 2.83 20.57 8.51 26.12z"/><path d="m1410.31 1052.82 10.84-1.16.77 31.34c-29.41 5.93-55.47 8.9-78.16 8.9-28.64 0-49.21-7.86-61.72-23.6-12.52-15.73-18.77-40.88-18.77-75.46 0-68.62 27.99-102.93 83.97-102.93 54.17 0 81.26 29.54 81.26 88.61l-2.71 30.18h-119.95c.25 16 3.74 27.73 10.45 35.21 6.7 7.49 19.21 11.22 37.53 11.22 18.31.01 37.15-.76 56.49-2.31zm-23.22-76.62c0-19.09-3.03-32.44-9.09-40.05s-16.32-11.41-30.76-11.41c-14.45 0-24.96 4-31.53 12-6.58 8-10 21.15-10.25 39.47h81.63z"/><path d="m1476.16 920.79c-13.67 0-25.03-4.74-34.08-14.21s-13.58-21.14-13.58-34.98c0-13.85 4.5-25.48 13.49-34.9 8.99-9.41 20.32-14.12 34-14.12 13.67 0 24.97 4.74 33.9 14.21s13.4 21.13 13.4 34.98-4.44 25.48-13.31 34.89c-8.88 9.43-20.15 14.13-33.82 14.13zm-.27-90.47c-11.21 0-20.59 4.02-28.15 12.05s-11.33 17.78-11.33 29.23 3.77 21.2 11.33 29.22c7.55 8.04 16.93 12.05 28.15 12.05 11.21 0 20.59-3.99 28.15-11.96s11.33-17.72 11.33-29.23-3.77-21.28-11.33-29.32c-7.55-8.02-16.94-12.04-28.15-12.04zm-9.26 49.46v19.24h-10.43v-54.5h19.79c6.83 0 11.96 1.32 15.38 3.96s5.12 6.6 5.12 11.87c0 5.28-.69 9.21-2.07 11.78-1.38 2.58-3.75 4.65-7.1 6.21l9.89 20.68h-10.97l-8.99-19.24zm-.18-26.8v18.35h10.61c3.24 0 5.58-.72 7.01-2.15 1.44-1.44 2.16-3.78 2.16-7.02 0-6.11-3.72-9.17-11.15-9.17h-8.63z"/></g></svg>