<svg enable-background="new 0 0 2000 2000" viewBox="0 0 2000 2000" xmlns="http://www.w3.org/2000/svg"><path d="m0 0h2000v2000h-2000z" fill="#f8fdff"/><path d="m1162.64 1034.81v182.02h-325.13v-182.02l8.22-5.27v-.16l154.27-99.38h.16l154.11 99.38z" fill="#0af"/><g fill="#00317e"><path d="m981.4 910.15c-78.45-78.45-186.83-126.98-306.68-126.98v433.66h162.8v-182.02l8.22-5.27v-.16l154.26-99.38h.16c-6.05-6.98-12.25-13.49-18.76-19.85z"/><path d="m1018.61 910.15c-6.36 6.36-12.56 12.87-18.45 19.85l154.11 99.38 8.37 5.43v182.02h162.64v-433.66c-119.85 0-228.22 48.53-306.67 126.98z"/></g></svg>